<svg width="105" height="32" viewBox="0 0 105 32" fill="none" xmlns="http://www.w3.org/2000/svg">
<mask id="mask0_70_21" style="mask-type:luminance" maskUnits="userSpaceOnUse" x="0" y="20" width="4" height="12">
<path d="M0 20.1802H3.29594V31.2718H0V20.1802Z" fill="white"/>
</mask>
<g mask="url(#mask0_70_21)">
<path fill-rule="evenodd" clip-rule="evenodd" d="M2.98384 21.0566C3.16575 21.1086 3.29562 21.239 3.29562 21.3693L3.29593 30.867C3.29593 31.1537 2.85417 31.3362 2.51636 31.2059L0.281829 30.3981C0.212797 30.3691 0.152678 30.3227 0.107071 30.2633C0.0614642 30.2038 0.0322342 30.1337 0.0219727 30.0593V20.5355C0.0219727 20.2748 0.437722 20.0924 0.801438 20.2488L2.98384 21.0566Z" fill="#0E6476"/>
</g>
<mask id="mask1_70_21" style="mask-type:luminance" maskUnits="userSpaceOnUse" x="0" y="0" width="15" height="21">
<path d="M0 0H14.07V20.1637H0V0Z" fill="white"/>
</mask>
<g mask="url(#mask1_70_21)">
<path d="M14.0757 5.62423C14.0757 5.49653 13.9481 5.36893 13.7693 5.31783L11.6237 4.52634C11.2661 4.37315 10.8575 4.55184 10.8575 4.80724V14.1393C10.8674 14.212 10.8963 14.2809 10.941 14.3391C10.986 14.3973 11.0451 14.4429 11.1129 14.4713L13.3097 15.2629C13.6417 15.3903 14.076 15.2117 14.076 14.9308L14.0757 5.62423ZM8.6333 12.7349C8.6333 12.6073 8.5055 12.4796 8.3267 12.4286L6.1813 11.637C5.8237 11.4838 5.4149 11.6625 5.4149 11.9178V17.7391C5.42506 17.8119 5.45398 17.8806 5.49865 17.9388C5.54343 17.9972 5.60272 18.0425 5.6704 18.071L7.86721 18.8625C8.19931 18.9901 8.63341 18.8114 8.63341 18.5306L8.6333 12.7349ZM8.6333 0.836945C8.6333 0.709245 8.5055 0.58165 8.3267 0.530549L6.1813 -0.26094C5.8237 -0.414138 5.4149 -0.235442 5.4149 0.0198541V5.84107C5.42506 5.91383 5.45398 5.98266 5.49865 6.04091C5.54343 6.09906 5.60272 6.14467 5.6704 6.17307L7.86721 6.96456C8.19931 7.09215 8.63341 6.91346 8.63341 6.63256L8.6333 0.836945ZM3.2184 0.390411C3.2184 0.262711 3.0907 0.135012 2.9119 0.0840148L0.766301 -0.707474C0.408805 -0.860672 0 -0.681976 0 -0.42668V18.2113C0.0100543 18.2841 0.0389733 18.353 0.083751 18.4112C0.128529 18.4693 0.187714 18.5148 0.255503 18.5431L2.45231 19.3346C2.78431 19.4624 3.21861 19.2837 3.21861 19.0027L3.2184 0.390411Z" fill="#0E6476"/>
</g>
<path d="M22.9775 21.3574V12.8467C22.9775 12.6689 23.0391 12.5163 23.1621 12.3887C23.2852 12.2611 23.4355 12.1973 23.6133 12.1973H28.8291C31.5863 12.1973 32.9648 13.4688 32.9648 16.0117C32.9648 18.5501 31.5863 19.8193 28.8291 19.8193H25.5547V21.3574C25.5547 21.5352 25.4909 21.6878 25.3633 21.8154C25.2402 21.9385 25.0898 22 24.9121 22H23.627C23.4492 22 23.2965 21.9385 23.1689 21.8154C23.0413 21.6878 22.9775 21.5352 22.9775 21.3574ZM25.5547 17.8848H28.0498C28.8154 17.8848 29.3965 17.7572 29.793 17.502C30.1895 17.2422 30.3877 16.7454 30.3877 16.0117C30.3877 15.2734 30.1895 14.7767 29.793 14.5215C29.3965 14.2617 28.8154 14.1318 28.0498 14.1318H25.5547V17.8848ZM33.2178 21.3711L34.9336 14.8633C35.3984 13.0905 36.9115 12.2018 39.4727 12.1973H43.1572C43.3258 12.1973 43.4648 12.2611 43.5742 12.3887C43.6882 12.5163 43.7451 12.6644 43.7451 12.833V21.3711C43.7451 21.5488 43.6813 21.6992 43.5537 21.8223C43.4261 21.9408 43.2734 22 43.0957 22H41.8105C41.6237 22 41.4688 21.9408 41.3457 21.8223C41.2272 21.6992 41.168 21.5443 41.168 21.3574V19.6348H36.3076L35.8496 21.3574C35.804 21.5443 35.7015 21.6992 35.542 21.8223C35.3825 21.9408 35.2139 22 35.0361 22H33.6895C33.5117 22 33.3841 21.9499 33.3066 21.8496C33.2292 21.7448 33.1904 21.6536 33.1904 21.5762C33.195 21.4987 33.2041 21.4303 33.2178 21.3711ZM36.8135 17.7002H41.168V14.1318H39.2197C38.7822 14.1318 38.3994 14.2572 38.0713 14.5078C37.7477 14.7539 37.529 15.0866 37.415 15.5059L36.8135 17.7002ZM45.1396 19.4912C45.1396 19.2223 45.2194 19.0309 45.3789 18.917C45.5384 18.7985 45.6934 18.7393 45.8438 18.7393H46.6572C47.0674 18.7393 47.3796 18.9626 47.5938 19.4092C47.8079 19.8558 48.2887 20.0791 49.0361 20.0791L51.4287 20.127C52.2308 20.127 52.6318 19.8649 52.6318 19.3408C52.6318 18.9443 52.1419 18.6322 51.1621 18.4043C50.7246 18.2995 50.2415 18.1969 49.7129 18.0967C49.1842 17.9919 48.6579 17.862 48.1338 17.707C47.6143 17.5521 47.1357 17.3698 46.6982 17.1602C46.2607 16.9505 45.9053 16.6634 45.6318 16.2988C45.363 15.9297 45.2285 15.4967 45.2285 15C45.2285 14.084 45.5544 13.3799 46.2061 12.8877C46.8577 12.391 47.9788 12.1426 49.5693 12.1426L51.3057 12.1836C52.2399 12.1836 53.0807 12.4251 53.8281 12.9082C54.5801 13.3867 54.9561 13.986 54.9561 14.7061C54.9561 14.9749 54.8763 15.1686 54.7168 15.2871C54.5573 15.4056 54.4046 15.4648 54.2588 15.4648H53.4453C53.0352 15.4648 52.723 15.2415 52.5088 14.7949C52.2946 14.3438 51.8138 14.1182 51.0664 14.1182L49.0088 14.0771C48.2067 14.0771 47.8057 14.3392 47.8057 14.8633C47.8057 15.1504 48.0586 15.3851 48.5645 15.5674C49.0749 15.7497 49.6901 15.9115 50.4102 16.0527C51.1348 16.1895 51.8617 16.3558 52.5908 16.5518C53.32 16.7477 53.9375 17.0713 54.4434 17.5225C54.9538 17.9691 55.209 18.5273 55.209 19.1973C55.209 20.1133 54.8809 20.8197 54.2246 21.3164C53.5729 21.8086 52.4541 22.0547 50.8682 22.0547L48.7969 22.0137C47.8626 22.0137 47.0195 21.7744 46.2676 21.2959C45.5156 20.8128 45.1396 20.2113 45.1396 19.4912ZM56.0498 19.4912C56.0498 19.2223 56.1296 19.0309 56.2891 18.917C56.4486 18.7985 56.6035 18.7393 56.7539 18.7393H57.5674C57.9775 18.7393 58.2897 18.9626 58.5039 19.4092C58.7181 19.8558 59.1989 20.0791 59.9463 20.0791L62.3389 20.127C63.141 20.127 63.542 19.8649 63.542 19.3408C63.542 18.9443 63.0521 18.6322 62.0723 18.4043C61.6348 18.2995 61.1517 18.1969 60.623 18.0967C60.0944 17.9919 59.568 17.862 59.0439 17.707C58.5244 17.5521 58.0459 17.3698 57.6084 17.1602C57.1709 16.9505 56.8154 16.6634 56.542 16.2988C56.2731 15.9297 56.1387 15.4967 56.1387 15C56.1387 14.084 56.4645 13.3799 57.1162 12.8877C57.7679 12.391 58.889 12.1426 60.4795 12.1426L62.2158 12.1836C63.1501 12.1836 63.9909 12.4251 64.7383 12.9082C65.4902 13.3867 65.8662 13.986 65.8662 14.7061C65.8662 14.9749 65.7865 15.1686 65.627 15.2871C65.4674 15.4056 65.3148 15.4648 65.1689 15.4648H64.3555C63.9453 15.4648 63.6331 15.2415 63.4189 14.7949C63.2048 14.3438 62.724 14.1182 61.9766 14.1182L59.9189 14.0771C59.1169 14.0771 58.7158 14.3392 58.7158 14.8633C58.7158 15.1504 58.9688 15.3851 59.4746 15.5674C59.985 15.7497 60.6003 15.9115 61.3203 16.0527C62.0449 16.1895 62.7718 16.3558 63.501 16.5518C64.2301 16.7477 64.8477 17.0713 65.3535 17.5225C65.8639 17.9691 66.1191 18.5273 66.1191 19.1973C66.1191 20.1133 65.791 20.8197 65.1348 21.3164C64.4831 21.8086 63.3643 22.0547 61.7783 22.0547L59.707 22.0137C58.7728 22.0137 57.9297 21.7744 57.1777 21.2959C56.4258 20.8128 56.0498 20.2113 56.0498 19.4912ZM67.5205 21.3438V12.8604C67.5205 12.6735 67.582 12.5163 67.7051 12.3887C67.8281 12.2611 67.9785 12.1973 68.1562 12.1973H70.9385C71.1162 12.1973 71.2848 12.2611 71.4443 12.3887C71.6038 12.5163 71.7109 12.6689 71.7656 12.8467L73.7822 18.6846L75.7988 12.8467C75.8535 12.6689 75.9606 12.5163 76.1201 12.3887C76.2796 12.2611 76.4482 12.1973 76.626 12.1973H79.4082C79.5859 12.1973 79.734 12.2611 79.8525 12.3887C79.9756 12.5163 80.0371 12.6735 80.0371 12.8604V21.3438C80.0371 21.5306 79.9733 21.6878 79.8457 21.8154C79.7227 21.9385 79.5723 22 79.3945 22H78.1641C77.9863 22 77.8337 21.9385 77.7061 21.8154C77.583 21.6878 77.5215 21.5306 77.5215 21.3438V14.665L75.1084 21.3848C75.0446 21.5534 74.9329 21.6992 74.7734 21.8223C74.6139 21.9408 74.4453 22 74.2676 22H73.29C73.1123 22 72.9437 21.9408 72.7842 21.8223C72.6292 21.6992 72.5176 21.5534 72.4492 21.3848L70.043 14.665V21.3438C70.043 21.5306 69.9792 21.6878 69.8516 21.8154C69.7285 21.9385 69.5781 22 69.4004 22H68.1699C67.9922 22 67.8395 21.9385 67.7119 21.8154C67.5843 21.6878 67.5205 21.5306 67.5205 21.3438ZM81.1924 21.3711L82.9082 14.8633C83.373 13.0905 84.8861 12.2018 87.4473 12.1973H91.1318C91.3005 12.1973 91.4395 12.2611 91.5488 12.3887C91.6628 12.5163 91.7197 12.6644 91.7197 12.833V21.3711C91.7197 21.5488 91.6559 21.6992 91.5283 21.8223C91.4007 21.9408 91.248 22 91.0703 22H89.7852C89.5983 22 89.4434 21.9408 89.3203 21.8223C89.2018 21.6992 89.1426 21.5443 89.1426 21.3574V19.6348H84.2822L83.8242 21.3574C83.7786 21.5443 83.6761 21.6992 83.5166 21.8223C83.3571 21.9408 83.1885 22 83.0107 22H81.6641C81.4863 22 81.3587 21.9499 81.2812 21.8496C81.2038 21.7448 81.165 21.6536 81.165 21.5762C81.1696 21.4987 81.1787 21.4303 81.1924 21.3711ZM84.7881 17.7002H89.1426V14.1318H87.1943C86.7568 14.1318 86.374 14.2572 86.0459 14.5078C85.7223 14.7539 85.5036 15.0866 85.3896 15.5059L84.7881 17.7002ZM93.6748 21.3574V12.8467C93.6748 12.6689 93.7363 12.5163 93.8594 12.3887C93.9824 12.2611 94.1328 12.1973 94.3105 12.1973H96.3203C96.4798 12.1973 96.6484 12.2611 96.8262 12.3887C97.0039 12.5163 97.1497 12.6689 97.2637 12.8467L101.393 19.1973V12.833C101.393 12.6553 101.454 12.5049 101.577 12.3818C101.705 12.2588 101.857 12.1973 102.035 12.1973H103.211C103.389 12.1973 103.539 12.2588 103.662 12.3818C103.79 12.5049 103.854 12.6598 103.854 12.8467V21.3574C103.854 21.5352 103.79 21.6878 103.662 21.8154C103.539 21.9385 103.389 22 103.211 22H100.941C100.764 22 100.581 21.9385 100.395 21.8154C100.208 21.6878 100.06 21.5352 99.9502 21.3574L96.1699 15.4922V21.3574C96.1699 21.5352 96.1061 21.6878 95.9785 21.8154C95.8555 21.9385 95.7051 22 95.5273 22H94.3242C94.1465 22 93.9938 21.9385 93.8662 21.8154C93.7386 21.6878 93.6748 21.5352 93.6748 21.3574Z" fill="#0E6476"/>
</svg>
