<svg width="24" height="24" viewBox="0 0 24 24"  xmlns="http://www.w3.org/2000/svg"><g clip-path="url(#clip0_643_3913)"><path d="M4.15317 7.02235L12 4.13142L19.8468 7.02234C19.7787 7.55019 19.6856 8.18363 19.5615 8.86832C19.2096 10.8097 18.6521 12.904 17.8583 14.2436C17.4329 14.9614 16.7539 15.7319 15.9602 16.4874L17.3748 17.9021C18.2527 17.0622 19.0475 16.1599 19.5789 15.2632C21.5521 11.9334 22 5.68421 22 5.68421L12 2L2 5.68421C2 5.68421 2.44782 11.9334 4.421 15.2632C6.39418 18.5929 12 22 12 22C12 22 13.6535 20.995 15.4805 19.5433L14.0565 18.1192C13.981 18.1783 13.9055 18.237 13.8299 18.2951C13.1457 18.8216 12.5043 19.2737 12 19.6152C11.4957 19.2737 10.8543 18.8216 10.17 18.2951C8.54517 17.045 6.91935 15.556 6.14158 14.2436C5.34778 12.904 4.79037 10.8097 4.4385 8.86835C4.3144 8.18365 4.22129 7.5502 4.15317 7.02235Z"/><path fill-rule="evenodd" clip-rule="evenodd" d="M11 11H10V9H13V14H11V11Z"/></g><defs><clipPath id="clip0_643_3913"><rect width="24" height="24" fill="white"/></clipPath></defs></svg>