<svg width="24" height="24" viewBox="0 0 24 24"  xmlns="http://www.w3.org/2000/svg"><g clip-path="url(#clip0_643_3682)"><path fill-rule="evenodd" clip-rule="evenodd" d="M12 14C13.1046 14 14 13.1046 14 12C14 10.8954 13.1046 9.99998 12 9.99998C10.8954 9.99998 10 10.8954 10 12C10 13.1046 10.8954 14 12 14ZM12 16C14.2091 16 16 14.2091 16 12C16 9.79085 14.2091 7.99998 12 7.99998C9.79086 7.99998 8 9.79085 8 12C8 14.2091 9.79086 16 12 16Z"/><path fill-rule="evenodd" clip-rule="evenodd" d="M23 12.0002C23 12.0002 20.25 4 12 4C3.75 4 1 12.0002 1 12.0002C1 12.0002 3.75 20 12 20C20.25 20 23 12.0002 23 12.0002ZM3.17093 12.0001C3.21943 12.1021 3.27444 12.2138 3.33619 12.3335C3.67022 12.9813 4.18911 13.8425 4.92308 14.6965C6.37561 16.3867 8.61235 18 12 18C15.3876 18 17.6244 16.3867 19.0769 14.6965C19.8109 13.8425 20.3298 12.9813 20.6638 12.3335C20.7256 12.2138 20.7806 12.1021 20.8291 12.0001C20.7806 11.8981 20.7255 11.7865 20.6638 11.6667C20.3298 11.0189 19.8109 10.1577 19.0769 9.3036C17.6244 7.61333 15.3876 6 12 6C8.61238 6 6.37565 7.61333 4.9231 9.3036C4.18914 10.1577 3.67024 11.0189 3.33621 11.6667C3.27445 11.7865 3.21944 11.8981 3.17093 12.0001ZM21.1115 11.3417C21.1115 11.3417 21.1111 11.3428 21.1103 11.345L21.1115 11.3417Z"/></g><defs><clipPath id="clip0_643_3682"><rect width="24" height="24" fill="white"/></clipPath></defs></svg>