<svg width="24" height="24" viewBox="0 0 24 24"  xmlns="http://www.w3.org/2000/svg"><g clip-path="url(#clip0_643_3730)"><path d="M14 4.5C12.6193 4.5 11.5 5.61929 11.5 7C11.5 8.38071 12.6193 9.5 14 9.5C14.3224 9.5 14.6306 9.43896 14.9136 9.3278L16.3958 10.8099C15.702 11.2471 14.8806 11.5 14 11.5C11.5147 11.5 9.5 9.48528 9.5 7C9.5 4.51472 11.5147 2.5 14 2.5C16.4853 2.5 18.5 4.51472 18.5 7C18.5 7.88053 18.2471 8.702 17.81 9.39572L16.3278 7.91357C16.439 7.63059 16.5 7.32242 16.5 7C16.5 5.61929 15.3807 4.5 14 4.5Z"/><path d="M4.5 7.45L2.9115 9.04L4.7385 10.87L1 10.87V13.12L4.6635 13.12L2.9115 14.875L4.5 16.465L9 11.9575L4.5 7.45Z"/><path fill-rule="evenodd" clip-rule="evenodd" d="M23 21C23 21 22.8546 19.9969 22.2312 18.75C21.2197 16.7268 18.9497 14.0619 14 14C9.05034 14.0619 6.78027 16.7268 5.76875 18.75C5.14538 19.9969 5 21 5 21H23ZM14 16.2502C17.1207 16.2967 18.718 17.5749 19.599 18.75H8.40099C9.28201 17.5749 10.8793 16.2967 14 16.2502Z"/></g><defs><clipPath id="clip0_643_3730"><rect width="24" height="24" fill="white"/></clipPath></defs></svg>