<svg width="24" height="24" viewBox="0 0 24 24"  xmlns="http://www.w3.org/2000/svg"><g clip-path="url(#clip0_643_3942)"><path d="M9.5 21L10.5 23H13.5L14.5 21H9.5Z"/><path d="M5.16201 6.74907L3.39424 4.9813L4.80845 3.56709L6.57622 5.33486L5.16201 6.74907Z"/><path d="M20.2679 4.99922L18.5001 6.76699L17.0859 5.35277L18.8537 3.58501L20.2679 4.99922Z"/><path fill-rule="evenodd" clip-rule="evenodd" d="M14.5 17.456C16.5655 16.5079 18 14.4215 18 12C18 8.68629 15.3137 6 12 6C8.68629 6 6 8.68629 6 12C6 14.4215 7.43447 16.5079 9.5 17.456V19H14.5V17.456ZM12 16C14.2091 16 16 14.2091 16 12C16 9.79086 14.2091 8 12 8C9.79086 8 8 9.79086 8 12C8 14.2091 9.79086 16 12 16Z"/><path d="M13 1.5V4H11V1.5H13Z"/><path d="M22.5 10H20V12H22.5V10Z"/><path d="M4 10H1.5V12H4V10Z"/></g><defs><clipPath id="clip0_643_3942"><rect width="24" height="24" fill="white"/></clipPath></defs></svg>